<?xml version="1.0" encoding="utf-8"?>
<!-- Generator: Adobe Illustrator 19.1.0, SVG Export Plug-In . SVG Version: 6.00 Build 0)  -->
<!DOCTYPE svg PUBLIC "-//W3C//DTD SVG 1.1//EN" "http://www.w3.org/Graphics/SVG/1.1/DTD/svg11.dtd">
<svg version="1.1" id="Layer_1" xmlns="http://www.w3.org/2000/svg" xmlns:xlink="http://www.w3.org/1999/xlink" x="0px" y="0px"
	 viewBox="0 0 110 18.9157639" enable-background="new 0 0 110 18.9157639" xml:space="preserve">
<g opacity="0.65">
	<g>
		<path fill="#FFFFFF" d="M101.7176895,13.2224035l-1.3094254,3.1908407
			c-0.0216217,0.0549564-0.0842819,0.0826015-0.1469498,0.0826015c-0.0615463,0-0.1231079-0.0266552-0.1458435-0.0802822
			l-1.4052658-3.1904726L101.7176895,13.2224035 M101.7176895,10.8798933c-0.0007172,0-0.0013809,0-0.0020981,0.000001
			l-3.0074692,0.0026865c-0.7912064,0.0007076-1.5285873,0.4007626-1.9605331,1.0636454
			c-0.4319458,0.6628885-0.5000763,1.4990225-0.1811523,2.2231016l1.4027939,3.1848745
			c0.3940735,0.9024944,1.2908249,1.4841557,2.2920837,1.4841557c0.4108658,0,0.8186798-0.1002827,1.1793747-0.2900028
			c0.5160294-0.2714367,0.9189148-0.7151947,1.1370697-1.2515354l1.3070526-3.1850901
			c0.2966461-0.7228651,0.2133408-1.5460501-0.2221298-2.1948214
			C103.2276306,11.2687311,102.4982452,10.8798933,101.7176895,10.8798933L101.7176895,10.8798933z"/>
		<path fill="#FFFFFF" d="M103.3726196,2.5596628c1.1823959,0,2.1922302,0.4186311,3.0293274,1.2557292
			c0.8370895,0.837091,1.2555389,1.8434458,1.2555389,3.0194063c0,1.1759677-0.4184494,2.1791987-1.2555389,3.0095086
			c-0.8370972,0.8304949-1.8469315,1.2456541-3.0293274,1.2456541h-1.6878204l0.0328903,1.4658489h-3.0087814v-0.9627581v-0.5030909
			V3.6558614c0-0.3055055,0.1061859-0.5646064,0.3188934-0.7773159c0.2123566-0.2123535,0.4714584-0.3188827,0.7771378-0.3188827
			H103.3726196 M100.9211197,8.8775768h2.4514999c0.5710373,0,1.0562363-0.1991549,1.4548798-0.5977993
			c0.3986511-0.3986511,0.6044083-0.876893,0.6177826-1.4350681c-0.0133743-0.5844221-0.2191315-1.0762124-0.6177826-1.4748635
			c-0.3986435-0.3984799-0.8838425-0.597806-1.4548798-0.597806h-2.4514999V8.8775768 M103.3726196,0.2171526h-3.5676804
			c-0.921196,0-1.7854385,0.3569044-2.4335175,1.0049645c-0.6481171,0.6481354-1.0050201,1.5124394-1.0050201,2.4337444v7.4340997
			v0.5030909V12.55581c0,1.2937298,1.0487747,2.3425102,2.3425064,2.3425102h3.0087814
			c0.6303864,0,1.2341614-0.2540665,1.674881-0.7047873c0.2209473-0.2259655,0.3915787-0.4918394,0.5050125-0.7801819
			c0.7045898-0.0518036,1.3786774-0.2086792,2.0100098-0.4682665c0.7874985-0.3238001,1.5089035-0.8075562,2.1441879-1.4378281
			c0.6367874-0.6316357,1.1259766-1.3504095,1.4537735-2.1361914C109.8336487,8.5846052,110,7.7312808,110,6.8347983
			c0-0.8955307-0.1660004-1.7488279-0.4934006-2.5361853c-0.3265533-0.7853227-0.8138199-1.5051994-1.4482498-2.1396291
			c-0.6350708-0.635067-1.3565979-1.1226923-2.1445465-1.4493216
			C105.1254196,0.3828543,104.2704468,0.2171526,103.3726196,0.2171526L103.3726196,0.2171526z"/>
	</g>
	<path fill="#FFFFFF" d="M6.7678132,2.5417016c1.0896435,0,2.0233684,0.3888192,2.8008418,1.166286
		c0.7774677,0.7773025,1.1661158,1.714329,1.1661158,2.8107502c0,1.0962424-0.388648,2.0332766-1.1661158,2.8107433
		c-0.7774734,0.7772951-1.7111983,1.1661215-2.8008418,1.1661215l-3.448637,0.0397968v5.4819212
		c0,0.1331463-0.0497129,0.2461243-0.1494808,0.3389359c-0.0995951,0.0931702-0.2162278,0.1395721-0.3488426,0.1395721
		c-0.1329746,0-0.2461247-0.046402-0.3389435-0.1395721c-0.0929904-0.0928116-0.1393998-0.2057896-0.1393998-0.3389359V3.0202088
		c0-0.1326227,0.0464094-0.2457731,0.1393998-0.3389356C2.574728,2.5884545,2.6878781,2.5417016,2.8208528,2.5417016H6.7678132
		 M6.7678132,0.1991916H2.8208528c-0.7542734,0-1.4628998,0.2932282-1.995348,0.825677
		C0.8249968,1.0253766,0.8244889,1.0258845,0.8239734,1.0264c-0.5313432,0.532329-0.8239738,1.2404097-0.8239738,1.9938089
		v12.9971123c0,0.7554092,0.2937368,1.4646034,0.8271043,1.9969387c0.5319239,0.531496,1.2396812,0.8240776,1.9937489,0.8240776
		c0.7243652,0,1.4158721-0.2733688,1.947401-0.7697811c0.5761461-0.537508,0.8934312-1.2658291,0.8934312-2.0512352v-3.1662884
		l1.1209702-0.0129356c1.6979995-0.0037413,3.2338738-0.6439543,4.4422126-1.8520164
		C12.4367933,9.7741547,13.07728,8.229435,13.07728,6.5187378c0-1.7109585-0.6405478-3.2557375-1.8523903-4.4673271
		C10.0132036,0.8397318,8.4719124,0.1991916,6.7678132,0.1991916L6.7678132,0.1991916z"/>
	<g>
		<path fill="#FFFFFF" d="M3.3191741,9.5587425h3.4486425c0.8238783-0.0132103,1.5316486-0.3156462,2.1231375-0.907135
			C9.4820957,8.0604658,9.7779264,7.352869,9.7779264,6.5286436c0-0.8238783-0.2958307-1.5314751-0.8869724-2.1229639
			C8.2994652,3.8145385,7.5916948,3.5185332,6.7678165,3.5185332H3.3191741V9.5587425z"/>
	</g>
	<path fill="#FFFFFF" d="M19.7178917,2.419935c1.8671112,0,3.4453411,0.6876073,4.7345219,2.0631726
		c1.2888279,1.3753858,1.9401054,3.0467796,1.953495,5.0134869c-0.0133896,1.9668789-0.6646671,3.637929-1.953495,5.0134869
		c-1.2891808,1.3753939-2.8674107,2.0631723-4.7345219,2.0631723c-1.8672848,0-3.4519424-0.6877785-4.7543335-2.0631723
		c-1.3025618-1.3755579-1.9604445-3.046608-1.9734831-5.0134869c0.0130386-1.9667072,0.6709213-3.6381011,1.9734831-5.0134869
		C16.2659492,3.1075423,17.8506069,2.419935,19.7178917,2.419935 M19.687994,15.5964231
		c1.5679798,0,2.9105186-0.5946159,4.0267487-1.784029c1.1164093-1.1892328,1.6811295-2.6278925,1.6945114-4.3157997
		c-0.013382-1.7143288-0.5749702-3.1562915-1.6844311-4.3258801c-1.1097984-1.1692448-2.451992-1.7541327-4.0267487-1.7541327
		c-1.5749226,0-2.923893,0.584888-4.0467367,1.7541327c-1.1231804,1.1695886-1.6844234,2.608428-1.6844234,4.3157997
		c0,1.7078953,0.5612431,3.153161,1.6844234,4.3357887C16.7741814,15.0052805,18.1198502,15.5964231,19.687994,15.5964231
		 M19.7178917,0.0774254c-1.2520142,0-2.4368248,0.2386593-3.5215073,0.7093583
		c-1.0801611,0.4687262-2.0672512,1.170485-2.9338531,2.0857828c-0.8553572,0.9031701-1.5111704,1.9252217-1.9490061,3.0375369
		c-0.4334564,1.1011739-0.6575022,2.3026233-0.6659069,3.5709643c-0.0000677,0.0103483-0.0000677,0.0207052,0,0.0310535
		c0.0084047,1.2684002,0.2324581,2.4698572,0.6659222,3.5710011c0.4377909,1.1121359,1.0935583,2.1341352,1.9490967,3.0376186
		c0.8665991,0.9151707,1.8536367,1.6168633,2.9336958,2.0855827c1.0847492,0.4707508,2.2695751,0.7094402,3.5215588,0.7094402
		c1.253149,0,2.4373817-0.2391682,3.5198021-0.7108612c1.0792866-0.4703312,2.0630074-1.1744671,2.9238262-2.0928516
		c0.8468437-0.9038343,1.4956093-1.925334,1.9285851-3.0364532c0.4281731-1.0988045,0.6496449-2.2975941,0.6582642-3.5630579
		c0.0000648-0.0106325,0.0000648-0.021266,0-0.0318909c-0.0086193-1.2654114-0.2300854-2.4641786-0.6582489-3.5630212
		c-0.4330196-1.111299-1.0818233-2.1328423-1.9283924-3.0362668c-0.8609238-0.9186147-1.8446941-1.6228178-2.9240875-2.0931649
		C22.1552887,0.3165632,20.9710789,0.0774254,19.7178917,0.0774254L19.7178917,0.0774254z M19.687994,13.2539129
		c-0.9186077,0-1.6614017-0.3318214-2.3376312-1.0442657c-0.7103291-0.7479296-1.0409393-1.61306-1.0409393-2.7231331
		c0-1.104641,0.3277626-1.9604449,1.0315037-2.6932583c0.6775494-0.7055554,1.4265537-1.0341644,2.3571472-1.0341644
		c0.9374599,0,1.6553574,0.3158994,2.3277168,1.024271c0.6974068,0.735208,1.0285625,1.5978937,1.0408535,2.7129097
		c-0.0123177,1.0935564-0.3493385,1.9560575-1.0597744,2.7128363C21.3286781,12.9317675,20.6135902,13.2539129,19.687994,13.2539129
		L19.687994,13.2539129z"/>
	<path fill="#FFFFFF" d="M29.3930073,2.5417016c0.132616,0,0.2492447,0.0467529,0.3488407,0.1395717
		c0.0997715,0.0931625,0.1494827,0.2063129,0.1494827,0.3389356v12.4987888h6.678112
		c0.1326103,0,0.2490692,0.0498838,0.3488388,0.1494799c0.0995941,0.0997677,0.1494827,0.2162209,0.1494827,0.3488436
		c0,0.1331463-0.0498886,0.2461243-0.1494827,0.3389359c-0.0997696,0.0931702-0.2162285,0.1395721-0.3488388,0.1395721h-7.1764355
		c-0.1329765,0-0.2461224-0.046402-0.3389416-0.1395721c-0.0929947-0.0928116-0.1394043-0.2057896-0.1394043-0.3389359V3.0202088
		c0-0.1326227,0.0464096-0.2457731,0.1394043-0.3389356C29.1468849,2.5884545,29.2600307,2.5417016,29.3930073,2.5417016
		 M29.3930073,0.1991916c-0.7542725,0-1.4629002,0.2932282-1.9953499,0.825677
		C27.39715,1.0253766,27.3966446,1.0258845,27.3961277,1.0264c-0.5313416,0.532329-0.8239746,1.2404097-0.8239746,1.9938089
		v12.9971123c0,0.7554092,0.2937355,1.4646034,0.8271046,1.9969387c0.5319233,0.531496,1.2396832,0.8240776,1.9937496,0.8240776
		h7.1764355c0.724205,0,1.4158745-0.2734489,1.9476051-0.7699718c0.5760307-0.537672,0.8932266-1.2659836,0.8932266-2.0510445
		c0-0.7533016-0.2962189-1.4649162-0.8340988-2.0037537c-0.0009918-0.0010014-0.0019798-0.0019875-0.0029793-0.0029812
		c-0.5388374-0.5378809-1.2504539-0.8340988-2.0037537-0.8340988h-4.3356018V3.0202088
		c0-0.7847669-0.3172207-1.5131718-0.8932304-2.0510449c-0.0005627-0.000523-0.0011253-0.0010535-0.0016861-0.0015771
		C30.80723,0.472081,30.1161575,0.1991916,29.3930073,0.1991916L29.3930073,0.1991916z"/>
	<path fill="#FFFFFF" d="M39.7338867,2.5417016c0.1326256,0,0.2490845,0.0467529,0.3488541,0.1395717
		c0.0995979,0.0931625,0.1494789,0.2063129,0.1494789,0.3389356v12.9971123c0,0.1331463-0.049881,0.2461243-0.1494789,0.3389359
		c-0.0997696,0.0931702-0.2162285,0.1395721-0.3488541,0.1395721c-0.1329613,0-0.2461128-0.046402-0.338932-0.1395721
		c-0.0931664-0.0928116-0.139576-0.2057896-0.139576-0.3389359V3.0202088c0-0.1326227,0.0464096-0.2457731,0.139576-0.3389356
		C39.4877739,2.5884545,39.6009254,2.5417016,39.7338867,2.5417016 M39.7338867,0.1991916
		c-0.7542648,0-1.4628906,0.2932282-1.9953346,0.825677c-0.5324516,0.5324482-0.8256836,1.2410744-0.8256836,1.9953402v12.9971123
		c0,0.7548065,0.29319,1.4632378,0.825676,1.9953365l0.0000076,0.0000038v0.0000038
		c0.5320969,0.532486,1.2405396,0.8256721,1.9953346,0.8256721c0.7242546,0,1.4159546-0.2734718,1.9476776-0.770031
		c0.5760002-0.5376625,0.8931656-1.2659359,0.8931656-2.0509853V3.0202088c0-0.7838404-0.3167-1.5117595-0.8917618-2.0496702
		c-0.0015411-0.0014423-0.0030861-0.002884-0.004631-0.0043188C41.1466789,0.471595,40.4561272,0.1991916,39.7338867,0.1991916
		L39.7338867,0.1991916z"/>
	<path fill="#FFFFFF" d="M50.8619843,2.3425105c1.6743507,0,3.1760941,0.5117056,4.5050812,1.5347736
		c0.1062012,0.0931625,0.1694756,0.2094436,0.1894531,0.3490229c0.0198174,0.1393924-0.0168571,0.2560248-0.1096649,0.3488436
		c-0.0797882,0.1195836-0.1894646,0.1861529-0.3288612,0.1991916c-0.0201721,0.0019588-0.0398674,0.0029378-0.0590744,0.0029378
		c-0.1136703,0-0.2103691-0.0342846-0.289772-0.1025338c-1.1562157-0.9036634-2.4589424-1.3555772-3.9071617-1.3555772
		c-1.7412682,0-3.2228661,0.5980911-4.4454651,1.7941086c-1.2227859,1.1960101-1.8339119,2.6381445-1.8339119,4.3257084
		c0,1.6879072,0.6111259,3.1232643,1.8339119,4.305892c1.222599,1.1829786,2.6478806,1.7741203,4.2759933,1.7741203
		c1.6277733,0,2.9732628-0.4515705,4.0366592-1.3554049c0.0957489-0.0638819,0.1979828-0.0957832,0.3065758-0.0957832
		c0.0270233,0,0.0544319,0.0019741,0.0822449,0.0059233c0.1393967,0.0199871,0.2422943,0.08986,0.3088646,0.2094431
		c0.0928192,0.0929909,0.1327934,0.2127533,0.1195946,0.3587513c-0.0133896,0.1463575-0.073185,0.2591639-0.1793861,0.3389435
		c-1.3155975,1.0100288-2.8175201,1.5149574-4.5050812,1.5149574c-2.006855,0-3.7178841-0.6877785-5.1332474-2.0631723
		c-1.4151955-1.3755579-2.1229591-3.0431337-2.1229591-5.0035791c0-1.9601016,0.7077637-3.6280208,2.1229591-5.0035863
		C47.1441002,3.0501053,48.8551292,2.3558931,50.8619843,2.3425105 M50.8619843,0.0000005
		c-0.0052109,0-0.0104179,0.0000151-0.0156288,0.000052c-1.2967262,0.0086456-2.5259705,0.2450261-3.6535759,0.7025739
		c-1.13274,0.4596329-2.174572,1.1469629-3.09655,2.0429077c-0.9294891,0.9034541-1.6413689,1.9287336-2.1161003,3.0475719
		c-0.4756699,1.1210871-0.7168617,2.3444004-0.7168617,3.6359711c0,1.2917137,0.2411919,2.5150862,0.716877,3.6361361
		c0.4747009,1.1187115,1.1865807,2.143939,2.1158829,3.0472059c0.9241219,0.8980293,1.9683647,1.5846958,3.1039124,2.0411072
		c1.1305504,0.4544086,2.3626404,0.6848125,3.6620445,0.6848125c2.2050171,0,4.19841-0.6709747,5.9249496-1.9943027
		c0.6310349-0.4796314,1.0187798-1.1852455,1.0922775-1.9886818c0.0000763-0.0008144,0.0001526-0.0016289,0.0002289-0.0024433
		c0.0649605-0.7183495-0.1418495-1.4206448-0.5726814-1.9732475c-0.4358826-0.61166-1.0974236-1.0159149-1.8562889-1.1247234
		c-0.001152-0.000165-0.0023117-0.000329-0.0034714-0.000494c-0.1363258-0.0193453-0.2746925-0.0291481-0.4112549-0.0291481
		c-0.5708847,0-1.1264229,0.1693029-1.6065598,0.489603c-0.0754738,0.050355-0.1479607,0.1050434-0.2170868,0.1637964
		c-0.6316032,0.5368347-1.455761,0.7977905-2.5195847,0.7977905c-1.0197334,0-1.8608627-0.3543205-2.6470947-1.1150723
		c-0.7644348-0.7393284-1.1203041-1.5725145-1.1203041-2.6224298c0-1.0550413,0.3588638-1.8974333,1.1293793-2.6510715
		c0.7854805-0.7684031,1.6775436-1.1262355,2.8074913-1.1262355c0.9107056,0,1.7106018,0.2758203,2.4443779,0.8429852
		c0.4918442,0.3972616,1.1108589,0.6151247,1.752552,0.6151247c0.0916786,0,0.1848984-0.0044088,0.2772331-0.0131168v0.0000033
		c0.7641182-0.0714746,1.4549675-0.4502192,1.9270821-1.0492368c0.502552-0.5959878,0.7247849-1.3708591,0.612484-2.1608315
		c-0.0001068-0.0007472-0.0002136-0.0014942-0.0003166-0.0022414c-0.0984726-0.687906-0.4406776-1.3193676-0.963562-1.7780585
		c-0.0375824-0.0329671-0.0762215-0.0647314-0.1158371-0.0952325C55.0539017,0.6799861,53.0574074,0.0000005,50.8619843,0.0000005
		L50.8619843,0.0000005z"/>
	<path fill="#FFFFFF" d="M67.6489639,2.6062968c0.1101379,0,0.2088776,0.0384727,0.296669,0.1149528
		c0.1062012,0.0665693,0.1694717,0.1692958,0.1894684,0.3088675c0.0198135,0.1395719-0.0100937,0.2626302-0.0896912,0.3688316
		l-4.66465,6.358984v6.259388c0,0.1331387-0.0467567,0.2461243-0.139576,0.3389359
		c-0.0931587,0.0931625-0.2061424,0.1395721-0.338932,0.1395721c-0.1329689,0-0.2461243-0.0464096-0.3389359-0.1395721
		c-0.0930023-0.0928116-0.1394005-0.2057972-0.1394005-0.3389359V9.7979088l-4.6846313-6.3989601
		c-0.1729507-0.2791436-0.1395798-0.5049288,0.0995903-0.6776991c0.0875015-0.0764747,0.186451-0.1149523,0.2966461-0.1149528
		c0.0235519,0,0.0476112,0.0017574,0.0721893,0.0052769c0.139576,0.0198162,0.2423019,0.0830824,0.3090439,0.1892838
		l4.3655052,6.0002327l4.3856773-6.0002327c0.066391-0.1062014,0.1694641-0.1694677,0.3088684-0.1892838
		C67.6013718,2.6080554,67.6254425,2.6062968,67.6489639,2.6062968 M67.6489639,0.2637883
		c-0.1333771,0-0.2685623,0.009617-0.4018402,0.0285907V0.2923765c-0.7769318,0.1104473-1.4618378,0.5320261-1.8976135,1.1634446
		l-2.4628906,3.369585l-2.450058-3.3675137c-0.4355469-0.6319051-1.120491-1.0541637-1.8967819-1.1651704V0.2927208
		c-0.1340561-0.0191963-0.2700615-0.0289325-0.4042549-0.0289325c-0.6347542,0-1.2510529,0.2187606-1.7482986,0.6183106
		c-0.5871811,0.453895-0.9659615,1.0884552-1.07024,1.7970526c-0.0682411,0.4637051-0.0488625,1.1790261,0.431015,1.9535413
		c0.0317688,0.0512886,0.0655174,0.1013293,0.1011505,0.150003l4.232254,5.7810364v5.4535885
		c0,0.7554474,0.2937584,1.4646626,0.8271713,1.9970074c0.5319138,0.531435,1.2396545,0.8240108,1.9936752,0.8240108
		c0.7542648,0,1.4628906-0.2932281,1.9953384-0.8256779c0.5324173-0.5323811,0.825676-1.2410297,0.825676-1.9953403v-5.4923258
		l4.2073898-5.7356339c0.4439011-0.6000729,0.6298294-1.3409872,0.5236816-2.0885253
		c-0.0001297-0.0009713-0.000267-0.0019503-0.0003967-0.0029216c-0.1075974-0.7509472-0.5061722-1.4161248-1.1037827-1.8528113
		C68.8611298,0.4690823,68.2634583,0.2637883,67.6489639,0.2637883L67.6489639,0.2637883z"/>
	<path fill="#FFFFFF" d="M81.3851929,2.5417016c0.3055649,0.0133827,0.5681992,0.126533,0.7873764,0.3389354
		c0.2193604,0.2127461,0.3290329,0.4652965,0.3290329,0.757479v11.7612982c0,0.2925262-0.1096725,0.5482063-0.3290329,0.7675571
		c-0.2191772,0.2191811-0.4818115,0.3288574-0.7873764,0.3288574c-0.3059082,0-0.564888-0.1061935-0.7774658-0.3189487
		c-0.2127457-0.2123947-0.3189545-0.4715576-0.3189545-0.7774658V7.007153l-2.8705292,3.986773
		c-0.2261353,0.3059082-0.5251007,0.458519-0.8970566,0.458519h-0.0398026c-0.3856964,0-0.6910858-0.1526108-0.917038-0.458519
		l-2.8505478-3.986773v8.3922615c0,0.3059082-0.1096878,0.5650711-0.3288651,0.7774658
		c-0.2193527,0.2127552-0.481987,0.3189487-0.7875519,0.3189487c-0.3057327,0-0.5648956-0.1061935-0.7772903-0.3189487
		c-0.2127533-0.2123947-0.3189545-0.4715576-0.3189545-0.7774658V3.6381159c0-0.3055649,0.1062012-0.5647206,0.3189545-0.7774668
		c0.2123947-0.2124026,0.4715576-0.3189476,0.7772903-0.3189476h0.0597916c0.3853531,0,0.6778717,0.1529543,0.877243,0.4585192
		l3.9669571,5.5019097l3.9669495-5.5019097c0.2257919-0.3055649,0.5247421-0.4585192,0.8970566-0.4585192H81.3851929
		 M81.3851929,0.1991916h-0.0198135c-0.5595551,0-1.0877228,0.1249787-1.5698242,0.371454
		c-0.4741364,0.2424105-0.8816452,0.5914556-1.2112045,1.0374444c-0.0054245,0.007345-0.0107956,0.0147202-0.0161438,0.0221248
		l-2.0668335,2.8665686l-2.043335-2.8339739c-0.633812-0.9311126-1.6507111-1.4636178-2.8008652-1.4636178h-0.0597916
		c-0.9213028,0-1.785614,0.3569432-2.4337311,1.0050824c-0.6480865,0.648087-1.0050201,1.5124546-1.0050201,2.4338417v11.7612982
		c0,0.9217796,0.3568954,1.786047,1.0049973,2.4338207c0.6477737,0.6481915,1.512001,1.0051022,2.433754,1.0051022
		c0.9212036,0,1.7575073-0.3388596,2.4184723-0.9799538c0.6706848-0.6499157,1.040451-1.5234528,1.040451-2.4589691V13.499589
		c0.4417267,0.1960764,0.9203491,0.2953663,1.4250793,0.2953663h0.0398026c0.5040741,0,0.9826889-0.101428,1.4250793-0.3017311
		v1.9061899c0,0.9224548,0.3574142,1.7873001,1.006424,2.4352379c0.6477966,0.6472931,1.511528,1.003685,2.4325027,1.003685
		c0.9213943,0,1.7892761-0.3604546,2.4437866-1.0149593c0.6546021-0.6545887,1.0151367-1.5154514,1.0151367-2.4239635V3.6381159
		c0-0.9219778-0.3695908-1.7881759-1.0406799-2.4390349c-0.6338882-0.6142909-1.434433-0.9590467-2.3157425-0.9976476
		C81.453537,0.1999391,81.4193726,0.1991916,81.3851929,0.1991916L81.3851929,0.1991916z"/>
	<path fill="#FFFFFF" d="M90.9424515,2.5596654c0.4644241,0,0.7913208,0.2332137,0.9805298,0.6997085l4.4054947,11.7413101
		c0.1195908,0.345892,0.0796051,0.6813536-0.1195908,1.0067263c-0.1993637,0.3259048-0.5283813,0.4884224-0.9867401,0.4884224
		c-0.4585114,0-0.7743301-0.2323895-0.9469376-0.6976938l-0.9768295-2.5915632h-4.844017l-0.9768372,2.5915632
		c-0.1861649,0.4653044-0.5082321,0.6976938-0.9667587,0.6976938c-0.4585114,0-0.7873764-0.1625175-0.9867401-0.4884224
		c-0.1993637-0.3253727-0.2391663-0.6608343-0.1195755-1.0067263l4.4054794-11.7413101
		c0.0928192-0.2123952,0.2356949-0.3853447,0.428627-0.5183113c0.1751938-0.1207478,0.364357-0.1811264,0.5674973-0.1811264
		c0.0199738,0,0.0400696,0.0005832,0.060318,0.0017507C90.8921051,2.5603404,90.917511,2.5596654,90.9424515,2.5596654
		 M89.2518082,11.0139112h3.2292938l-1.6147308-4.2859039L89.2518082,11.0139112 M90.9424515,0.217152
		c-0.0255508,0-0.0513,0.0002684-0.0771561,0.0008014c-0.0198135-0.0003493-0.0395813-0.0005249-0.0592422-0.0005249
		c-0.6763306,0-1.3322754,0.2057147-1.8969116,0.5949078c-0.5487747,0.3781939-0.9795837,0.9000317-1.2457123,1.5090027
		c-0.0165863,0.0379508-0.0321579,0.076335-0.0467148,0.1151152L83.211235,14.1777639
		c-0.0071564,0.0190763-0.014061,0.03825-0.0207214,0.0575056c-0.3488083,1.0089235-0.229454,2.0729084,0.3360977,2.9959545
		c0.6244659,1.0208263,1.7124634,1.6071186,2.9841537,1.6071186c0.7202072,0,1.396698-0.2134705,1.9563293-0.6173325
		c0.526268-0.3797855,0.9250717-0.9022121,1.1853409-1.5527573c0.0058289-0.0145721,0.0115051-0.0292015,0.0170441-0.0438919
		l0.4053116-1.0752754h1.6031494l0.4039459,1.0716724c0.2475891,0.6633072,0.6413422,1.1971817,1.1703568,1.586834
		c0.5602341,0.4126396,1.2414169,0.6307507,1.969902,0.6307507c1.2716827,0,2.3596878-0.5862923,2.9850159-1.6085377
		c0.564682-0.9223881,0.6838837-1.986105,0.3352432-2.9945354c-0.0066605-0.0192556-0.0135651-0.0384293-0.0207138-0.0575056
		L94.116188,2.4364541c-0.0072327-0.019263-0.0147095-0.0384367-0.0224457-0.0575054
		C93.5447311,1.0252994,92.366684,0.217152,90.9424515,0.217152L90.9424515,0.217152z"/>
</g>
<g>
	<g>
		<g>
			<path fill="#F57E25" d="M101.7240067,13.2355642l-1.3094254,3.1908388
				c-0.0428467,0.1089325-0.2469025,0.1105537-0.2927933,0.0023251l-1.4052582-3.1904783L101.7240067,13.2355642z"/>
		</g>
		<g>
			<path fill="#F57E25" d="M106.4082565,3.8285508c-0.8370895-0.8370936-1.8469238-1.2557273-3.0293121-1.2557273h-3.567688
				c-0.3056793,0-0.5647812,0.1065276-0.7771378,0.3188837c-0.2127075,0.212707-0.3188858,0.471812-0.3188858,0.7773149v7.4340978
				v0.5030947v0.962759h3.0087738l-0.0328903-1.4658537h1.6878281c1.1823883,0,2.1922226-0.4151583,3.0293121-1.2456484
				c0.8370972-0.8303156,1.2555542-1.8335447,1.2555542-3.0095091
				C107.6638107,5.6720009,107.2453537,4.6656446,106.4082565,3.8285508z M104.8338165,8.2929373
				c-0.3986511,0.3986492-0.8838348,0.5978012-1.4548721,0.5978012h-2.4515076V4.7852049h2.4515076
				c0.5710373,0,1.056221,0.199326,1.4548721,0.5978017c0.3986511,0.3986497,0.6044083,0.8904428,0.6177902,1.474864
				C105.4382248,7.416049,105.2324677,7.8942876,104.8338165,8.2929373z"/>
		</g>
	</g>
	<g>
		<g>
			<path fill="#4E3177" d="M2.3488307,16.0304832V3.0333705c0-0.1326199,0.0464082-0.2457728,0.1393986-0.338937
				c0.0928168-0.0928168,0.2059696-0.1395726,0.3389373-0.1395726h3.9469671c1.0896401,0,2.0233688,0.3888218,2.8008385,1.1662915
				c0.7774696,0.7772961,1.1661177,1.7143273,1.1661177,2.8107457c0,1.0962443-0.388648,2.0332751-1.1661177,2.8107457
				c-0.7774696,0.7772961-1.7111983,1.1661177-2.8008385,1.1661177l-3.4486425,0.0398035v5.4819183
				c0,0.1331406-0.0497108,0.2461205-0.1494799,0.3389378c-0.0995955,0.0931625-0.2162247,0.1395721-0.3488448,0.1395721
				c-0.1329677,0-0.2461205-0.0464096-0.3389373-0.1395721C2.3952389,16.2766037,2.3488307,16.1636238,2.3488307,16.0304832z
				 M3.3254912,9.5719042h3.4486425C7.598012,9.5586939,8.3057823,9.256258,8.8972712,8.6647692
				c0.5911417-0.5911417,0.8869724-1.298738,0.8869724-2.1229639c0-0.8238783-0.2958307-1.5314746-0.8869724-2.1229634
				C8.3057823,3.8277004,7.598012,3.5316951,6.7741337,3.5316951H3.3254912V9.5719042z"/>
		</g>
	</g>
	<g>
		<g>
			<path fill="#4E3177" d="M12.9963932,9.5097561c0.0130358-1.9667048,0.6709223-3.6380997,1.973484-5.0134897
				C16.2722645,3.120703,17.856926,2.433095,19.7242107,2.433095c1.8671093,0,3.4453392,0.687608,4.7345181,2.0631714
				c1.2888298,1.3753901,1.9401112,3.0467849,1.953495,5.0134897c-0.0133839,1.9668789-0.6646652,3.6379261-1.953495,5.0134897
				c-1.2891788,1.3753901-2.8674088,2.0631723-4.7345181,2.0631723c-1.8672848,0-3.4519463-0.6877823-4.7543335-2.0631723
				C13.6673155,13.1476822,13.009429,11.476635,12.9963932,9.5097561z M19.7043953,3.429744
				c-1.5749283,0-2.9238987,0.5848839-4.0467367,1.7541306c-1.1231861,1.1695943-1.6844311,2.6084261-1.6844311,4.3158002
				c0,1.7078962,0.561245,3.1531591,1.6844311,4.3357897c1.122838,1.1829777,2.4685068,1.7741184,4.0366564,1.7741184
				c1.5679741,0,2.9105129-0.5946169,4.0267467-1.7840261c1.1164074-1.1892347,1.6811295-2.6278934,1.6945133-4.3158007
				c-0.0133839-1.7143269-0.5749779-3.1562872-1.6844311-4.3258815C22.6213417,4.0146279,21.27915,3.429744,19.7043953,3.429744z"/>
		</g>
	</g>
	<g>
		<g>
			<path fill="#4E3177" d="M36.5757523,16.5089931h-7.1764297c-0.132967,0-0.2461205-0.0464096-0.3389378-0.1395721
				c-0.092989-0.0928173-0.1393986-0.2057972-0.1393986-0.3389378V3.0333705c0-0.1326199,0.0464096-0.2457728,0.1393986-0.338937
				c0.0928173-0.0928168,0.2059708-0.1395726,0.3389378-0.1395726c0.1326199,0,0.2492485,0.0467558,0.3488445,0.1395726
				c0.0997696,0.0931642,0.1494808,0.2063172,0.1494808,0.338937v12.4987869h6.6781044
				c0.1326218,0,0.2490768,0.0498848,0.3488464,0.1494808c0.0995941,0.0997686,0.1494789,0.2162237,0.1494789,0.3488445
				c0,0.1331406-0.0498848,0.2461205-0.1494789,0.3389378C36.8248291,16.4625835,36.708374,16.5089931,36.5757523,16.5089931z"/>
		</g>
	</g>
	<g>
		<g>
			<path fill="#4E3177" d="M39.2616997,16.0304832V3.0333705c0-0.1326199,0.0464096-0.2457728,0.1395721-0.338937
				c0.0928192-0.0928168,0.2059708-0.1395726,0.3389397-0.1395726c0.132618,0,0.249073,0.0467558,0.3488426,0.1395726
				c0.0995979,0.0931642,0.1494789,0.2063172,0.1494789,0.338937v12.9971123c0,0.1331406-0.049881,0.2461205-0.1494789,0.3389378
				c-0.0997696,0.0931625-0.2162247,0.1395721-0.3488426,0.1395721c-0.1329689,0-0.2461205-0.0464096-0.3389397-0.1395721
				C39.3081093,16.2766037,39.2616997,16.1636238,39.2616997,16.0304832z"/>
		</g>
	</g>
	<g>
		<g>
			<path fill="#4E3177" d="M45.735054,14.4458208c-1.4151955-1.3755636-2.122963-3.0431347-2.122963-5.003582
				c0-1.9601002,0.7077675-3.6280189,2.122963-5.0035825c1.4153671-1.3753898,3.1263924-2.0696027,5.1332474-2.0829864
				c1.6743507,0,3.1761017,0.5117083,4.505085,1.5347772c0.1061974,0.0931644,0.1694679,0.209446,0.1894569,0.3490186
				c0.0198135,0.1393986-0.016861,0.2560277-0.1096764,0.3488445c-0.0797806,0.1195841-0.1894569,0.1861548-0.3288574,0.1991906
				c-0.1395721,0.0135574-0.2560272-0.0198145-0.3488464-0.0995951c-1.156208-0.9036589-2.4589424-1.3555751-3.9071617-1.3555751
				c-1.7412682,0-3.2228584,0.5980937-4.4454651,1.7941074c-1.2227821,1.1960139-1.8339119,2.6381483-1.8339119,4.3257084
				c0,1.6879072,0.6111298,3.1232624,1.8339119,4.3058929c1.2226067,1.1829777,2.6478806,1.7741184,4.2759972,1.7741184
				c1.6277657,0,2.973259-0.4515686,4.0366554-1.355401c0.1195831-0.0797806,0.2492485-0.1096764,0.3888206-0.0898619
				c0.1394005,0.019989,0.2422981,0.0898619,0.3088684,0.209446c0.0928154,0.0929909,0.1327934,0.2127485,0.1195831,0.3587523
				c-0.013382,0.1463509-0.0731773,0.2591562-0.1793747,0.3389368c-1.3155975,1.0100327-2.817524,1.5149632-4.505085,1.5149632
				C48.8614464,16.5089931,47.1504211,15.8212109,45.735054,14.4458208z"/>
		</g>
	</g>
	<g>
		<g>
			<path fill="#4E3177" d="M62.430233,16.0304832V9.8110723l-4.6846352-6.3989611
				c-0.1729431-0.2791452-0.1395721-0.5049295,0.0995941-0.6777008c0.1062012-0.0928166,0.2292633-0.1296651,0.3688354-0.1096766
				c0.1395721,0.0198147,0.2422943,0.0830832,0.3090401,0.1892834l4.3655128,6.0002317l4.3856735-6.0002317
				c0.0663986-0.1062002,0.1694641-0.1694686,0.3088684-0.1892834c0.1395721-0.0199885,0.2622833,0.01686,0.3688278,0.1096766
				c0.1062012,0.0665708,0.1694717,0.1692948,0.1894608,0.3088675c0.0198135,0.1395726-0.0100784,0.2626328-0.0896912,0.3688333
				l-4.6646423,6.358983v6.2593889c0,0.1331406-0.0467567,0.2461205-0.1395721,0.3389378
				c-0.0931664,0.0931625-0.2061424,0.1395721-0.3389359,0.1395721c-0.1329689,0-0.2461205-0.0464096-0.3389397-0.1395721
				C62.4766388,16.2766037,62.430233,16.1636238,62.430233,16.0304832z"/>
		</g>
	</g>
	<g>
		<path fill="#F57E25" d="M76.527504,11.4656067h-0.0398026c-0.3856964,0-0.6910858-0.1526079-0.9170456-0.4585209
			L72.720108,7.0203152v8.3922596c0,0.305912-0.1096725,0.5650692-0.3288574,0.7774696
			c-0.2193527,0.2127476-0.481987,0.3189487-0.7875519,0.3189487c-0.3057327,0-0.5648956-0.1062012-0.7772903-0.3189487
			c-0.2127533-0.2124004-0.3189545-0.4715576-0.3189545-0.7774696V3.6512792c0-0.3055649,0.1062012-0.5647216,0.3189545-0.7774699
			c0.2123947-0.2124007,0.4715576-0.3189485,0.7772903-0.3189485h0.0597916c0.3853455,0,0.6778793,0.1529562,0.877243,0.4585211
			l3.9669571,5.5019073l3.9669571-5.5019073c0.2257843-0.3055649,0.5247421-0.4585211,0.897049-0.4585211H81.39151
			c0.3055649,0.0133836,0.5681992,0.1265366,0.7873764,0.338937c0.2193604,0.2127483,0.3290329,0.4653001,0.3290329,0.7574813
			v11.7612953c0,0.2925282-0.1096725,0.5482092-0.3290329,0.7675629c-0.2191772,0.2191792-0.4818115,0.3288555-0.7873764,0.3288555
			c-0.3059082,0-0.5648956-0.1062012-0.7774658-0.3189487c-0.2127457-0.2124004-0.3189468-0.4715576-0.3189468-0.7774696V7.0203152
			l-2.8705368,3.9867706C77.1984253,11.3129988,76.8994675,11.4656067,76.527504,11.4656067z"/>
	</g>
	<g>
		<path fill="#F57E25" d="M94.2815323,15.8113031l-0.9768372-2.5915661h-4.8440247l-0.9768295,2.5915661
			c-0.1861572,0.4653006-0.5082321,0.69769-0.9667587,0.69769c-0.458519,0-0.7873764-0.1625156-0.9867401-0.4884167
			c-0.1993637-0.3253803-0.2391663-0.6608419-0.1195831-1.006731L89.816246,3.2725387
			c0.0928192-0.2124007,0.2356949-0.3853457,0.428627-0.5183132c0.1924133-0.1326201,0.4016876-0.1924121,0.6278152-0.1793761
			c0.5049286-0.0264196,0.857254,0.2061434,1.0566177,0.6976893l4.4054871,11.7413063
			c0.1195831,0.3458891,0.0796051,0.6813507-0.1195831,1.006731c-0.1993637,0.325901-0.5283966,0.4884167-0.9867401,0.4884167
			C94.7699432,16.5089931,94.4541245,16.2766037,94.2815323,15.8113031z M89.2581329,11.0270748h3.2292862l-1.6147308-4.2859049
			L89.2581329,11.0270748z"/>
	</g>
</g>
</svg>
