<svg xmlns="http://www.w3.org/2000/svg" width="15" height="15" viewBox="0 0 15 15">
  <path fill="#D57E00" fill-rule="evenodd" d="M9.4355163,7.83147607 L13.6574286,11.1078196 C14.1202774,11.4680956 14.1643582,12.1886477 13.7540674,12.71677 C13.3437765,13.24574 12.6350924,13.3813733 12.1722437,13.0210973 L7.96874194,9.76003245 C7.28753815,10.3023993 6.45348184,10.6705634 5.52621049,10.7876402 C2.8347366,11.1267235 0.377230199,9.21853209 0.0389945824,6.5270582 C-0.300936451,3.83558431 1.60640725,1.37807791 4.29872885,1.03899458 C6.99020275,0.699911257 9.44770914,2.60810267 9.78594476,5.29957656 C9.89840905,6.19226189 9.76384611,7.05911613 9.4355163,7.83147607 Z M4.91162196,3.09807807 C3.35692492,3.09807807 2.09723037,4.35862033 2.09723037,5.91331738 C2.09723037,7.46801443 3.35692492,8.72855669 4.91162196,8.72855669 C6.46801443,8.72855669 7.72770898,7.46801443 7.72770898,5.91331738 C7.72770898,4.35862033 6.46801443,3.09807807 4.91162196,3.09807807 Z"/>
</svg>
